<?xml version="1.0" encoding="UTF-8"?>
<svg version="1.1" xmlns="http://www.w3.org/2000/svg" width="500" height="500">
<path d="M0 0 C3.63 0 7.26 0 11 0 C11.33 5.28 11.66 10.56 12 16 C13.010625 14.845 14.02125 13.69 15.0625 12.5 C15.71605469 11.778125 16.36960937 11.05625 17.04296875 10.3125 C19.02751255 8.0841587 19.02751255 8.0841587 20.42578125 5.6875 C22.46570853 2.60836449 24.17778289 0.47562955 27.87255859 -0.48876953 C32.92378429 -1.26242222 38.04593292 -1.38457771 43 0 C46.29812702 2.44177123 47.45453852 5.26827595 49 9 C50.0269169 10.88311872 51.06889448 12.75809465 52.125 14.625 C52.80949219 15.91277344 52.80949219 15.91277344 53.5078125 17.2265625 C55.2784015 20.51744782 57.14594588 23.75540528 59 27 C59.33 18.09 59.66 9.18 60 0 C63.3 0 66.6 0 70 0 C70 15.51 70 31.02 70 47 C66.37 47 62.74 47 59 47 C58.5153125 46.14019531 58.030625 45.28039062 57.53125 44.39453125 C52.86137308 36.1470776 48.0072969 28.04744145 43 20 C42.67 28.91 42.34 37.82 42 47 C33.13214872 48.31700762 33.13214872 48.31700762 28 47 C23.7445039 43.42391164 20.89491386 38.4790269 18.12817383 33.7175293 C16.93041421 31.89406276 15.58815901 30.48852544 14 29 C11.06552643 31.93447357 11.53841577 35.18259456 11.375 39.125 C11.31699219 40.25615234 11.31699219 40.25615234 11.2578125 41.41015625 C11.16348969 43.27303184 11.08065338 45.13648255 11 47 C7.37 47 3.74 47 0 47 C0 31.49 0 15.98 0 0 Z M28.9375 11.875 C26.77541538 13.76703874 26.77541538 13.76703874 27 16 C26.34 16 25.68 16 25 16 C25 16.66 25 17.32 25 18 C24.34 18 23.68 18 23 18 C23.62876499 21.73765857 25.3170818 24.19033597 27.5 27.25 C28.1290625 28.14203125 28.758125 29.0340625 29.40625 29.953125 C29.9321875 30.62859375 30.458125 31.3040625 31 32 C31.33 32 31.66 32 32 32 C32 24.74 32 17.48 32 10 C30.6587587 9.88788787 30.6587587 9.88788787 28.9375 11.875 Z " fill="#FA3432" transform="translate(246,229)"/>
<path d="M0 0 C5.589375 -0.020625 11.17875 -0.04125 16.9375 -0.0625 C18.70343506 -0.071604 20.46937012 -0.08070801 22.28881836 -0.09008789 C23.68082605 -0.09300714 25.07283459 -0.09555567 26.46484375 -0.09765625 C27.55835144 -0.1053302 27.55835144 -0.1053302 28.6739502 -0.11315918 C30.44970076 -0.11347011 32.22534208 -0.06228515 34 0 C35 1 35 1 35.1328125 2.8125 C35.13023438 3.534375 35.12765625 4.25625 35.125 5 C35.12886719 6.0828125 35.12886719 6.0828125 35.1328125 7.1875 C35 9 35 9 34 10 C32.21928754 10.08726223 30.4351686 10.10699041 28.65234375 10.09765625 C27.57275391 10.09443359 26.49316406 10.09121094 25.38085938 10.08789062 C24.24455078 10.07951172 23.10824219 10.07113281 21.9375 10.0625 C20.79732422 10.05798828 19.65714844 10.05347656 18.48242188 10.04882812 C15.65489649 10.03699747 12.8274736 10.0205141 10 10 C10 12.64 10 15.28 10 18 C17.59 18 25.18 18 33 18 C33 20.97 33 23.94 33 27 C25.41 27 17.82 27 10 27 C10 30.3 10 33.6 10 37 C10.74685059 36.98428955 11.49370117 36.9685791 12.26318359 36.95239258 C15.63371261 36.89018923 19.00412112 36.8510558 22.375 36.8125 C23.550625 36.78736328 24.72625 36.76222656 25.9375 36.73632812 C27.61972656 36.72182617 27.61972656 36.72182617 29.3359375 36.70703125 C30.37282715 36.6913208 31.4097168 36.67561035 32.47802734 36.65942383 C33.72640381 36.82800903 33.72640381 36.82800903 35 37 C35.66 37.99 36.32 38.98 37 40 C40.63773895 31.57646854 43.80752063 23.06373537 46.75 14.375 C47.53530334 12.06991869 48.32170342 9.76521063 49.109375 7.4609375 C49.61936035 5.95732666 49.61936035 5.95732666 50.13964844 4.42333984 C51 2 51 2 52 0 C55.96 0 59.92 0 64 0 C67.29229676 7.04398376 69.94549563 14.2206866 72.46435547 21.57470703 C73.12457926 23.49877385 73.7943113 25.41934869 74.46484375 27.33984375 C76.7083402 33.85343917 78.69095104 40.23412899 80 47 C76.04 47 72.08 47 68 47 C67.01 44.03 66.02 41.06 65 38 C60.38 38 55.76 38 51 38 C50.01 40.97 49.02 43.94 48 47 C32.16 47 16.32 47 0 47 C0 31.49 0 15.98 0 0 Z M57 16 C56.49440092 17.43554025 55.9957251 18.8735202 55.5 20.3125 C55.2215625 21.11300781 54.943125 21.91351563 54.65625 22.73828125 C53.86066893 25.08769422 53.86066893 25.08769422 54 28 C56.64 28 59.28 28 62 28 C61.40075776 23.80530429 60.42500059 19.99000166 59 16 C58.34 16 57.68 16 57 16 Z " fill="#253CDE" transform="translate(76,229)"/>
<path d="M0 0 C1.51400391 0.01740234 1.51400391 0.01740234 3.05859375 0.03515625 C4.07050781 0.04417969 5.08242188 0.05320313 6.125 0.0625 C7.29869141 0.07990234 7.29869141 0.07990234 8.49609375 0.09765625 C8.64232178 0.75362793 8.7885498 1.40959961 8.93920898 2.08544922 C9.60130403 5.04846243 10.26739794 8.01056248 10.93359375 10.97265625 C11.16369141 12.00519531 11.39378906 13.03773438 11.63085938 14.1015625 C11.85322266 15.08769531 12.07558594 16.07382813 12.3046875 17.08984375 C12.50892334 18.0010498 12.71315918 18.91225586 12.92358398 19.85107422 C13.41532215 22.11318827 13.41532215 22.11318827 14.49609375 24.09765625 C16.68460655 19.33616219 17.59328831 14.38992329 18.62109375 9.28515625 C18.80285156 8.40150391 18.98460937 7.51785156 19.171875 6.60742188 C19.61741511 4.43834501 20.05731677 2.26811131 20.49609375 0.09765625 C24.45609375 0.09765625 28.41609375 0.09765625 32.49609375 0.09765625 C34.14609375 8.67765625 35.79609375 17.25765625 37.49609375 26.09765625 C39.81828845 19.32269096 39.81828845 19.32269096 41.6640625 12.5 C41.92026367 11.39301758 41.92026367 11.39301758 42.18164062 10.26367188 C42.34728516 9.52826172 42.51292969 8.79285156 42.68359375 8.03515625 C42.86083984 7.26494141 43.03808594 6.49472656 43.22070312 5.70117188 C43.64975198 3.83422956 44.07350174 1.96607069 44.49609375 0.09765625 C48.12609375 0.09765625 51.75609375 0.09765625 55.49609375 0.09765625 C54.8865769 6.9161181 53.17126089 13.12326187 51.18359375 19.66015625 C50.54943598 21.7860575 49.91662271 23.91236028 49.28515625 26.0390625 C48.82544434 27.58424561 48.82544434 27.58424561 48.35644531 29.16064453 C46.61451349 35.10713712 45.04405399 41.09810849 43.49609375 47.09765625 C39.86609375 47.09765625 36.23609375 47.09765625 32.49609375 47.09765625 C30.25138906 37.80283535 28.04594133 28.53949087 26.49609375 19.09765625 C24.4037193 27.06648661 22.66954039 35.04823779 21.14453125 43.140625 C20.49609375 46.09765625 20.49609375 46.09765625 19.49609375 47.09765625 C17.81000409 47.16971136 16.12108716 47.18151693 14.43359375 47.16015625 C13.51449219 47.15113281 12.59539062 47.14210938 11.6484375 47.1328125 C10.93816406 47.12121094 10.22789062 47.10960937 9.49609375 47.09765625 C9.24214844 46.11925781 8.98820312 45.14085937 8.7265625 44.1328125 C6.61049207 35.89448116 6.61049207 35.89448116 4.05859375 27.78515625 C1.47292674 20.35672065 -0.47345578 12.69342979 -2.50390625 5.09765625 C-2.71192871 4.37553955 -2.91995117 3.65342285 -3.13427734 2.90942383 C-3.25625488 2.31154053 -3.37823242 1.71365723 -3.50390625 1.09765625 C-2.50390625 0.09765625 -2.50390625 0.09765625 0 0 Z " fill="#F43C3A" transform="translate(368.50390625,228.90234375)"/>
<path d="M0 0 C1.28068359 -0.020625 2.56136719 -0.04125 3.88085938 -0.0625 C5.12029297 -0.06765625 6.35972656 -0.0728125 7.63671875 -0.078125 C8.77197998 -0.0874707 9.90724121 -0.09681641 11.0769043 -0.10644531 C14.78646074 0.30221329 17.14311457 1.30196261 20.3125 3.25 C24.15655165 8.40912196 25.0330356 11.86811328 24.3125 18.25 C22.8125 21.0625 22.8125 21.0625 21.3125 23.25 C21.07435843 26.14798362 21.07435843 26.14798362 22.27734375 28.03125 C23.64588816 30.96458292 23.70129192 33.52716075 23.875 36.75 C24.08445113 40.47737522 24.40243323 43.60973291 25.3125 47.25 C21.3525 47.25 17.3925 47.25 13.3125 47.25 C13.10753906 46.10660156 12.90257812 44.96320313 12.69140625 43.78515625 C12.4194769 42.29423324 12.14733026 40.80334984 11.875 39.3125 C11.74029297 38.55775391 11.60558594 37.80300781 11.46679688 37.02539062 C11.06977966 33.33046826 11.06977966 33.33046826 9.3125 30.25 C7.29655418 30.01572222 5.274026 29.83663876 3.25 29.6875 C2.14527344 29.60371094 1.04054687 29.51992188 -0.09765625 29.43359375 C-0.95230469 29.37300781 -1.80695313 29.31242187 -2.6875 29.25 C-2.67589844 30.46558594 -2.66429687 31.68117188 -2.65234375 32.93359375 C-2.64296722 34.51822764 -2.63386687 36.10286318 -2.625 37.6875 C-2.61662109 38.48994141 -2.60824219 39.29238281 -2.59960938 40.11914062 C-2.5909857 42.16295221 -2.6352185 44.20683902 -2.6875 46.25 C-3.6875 47.25 -3.6875 47.25 -6.19140625 47.34765625 C-7.20074219 47.33605469 -8.21007812 47.32445312 -9.25 47.3125 C-10.26191406 47.30347656 -11.27382812 47.29445313 -12.31640625 47.28515625 C-13.09886719 47.27355469 -13.88132813 47.26195312 -14.6875 47.25 C-14.71277002 40.71721214 -14.73033292 34.18443679 -14.74243164 27.65161133 C-14.74747317 25.42732268 -14.75430623 23.20303737 -14.76293945 20.97875977 C-14.77501298 17.78921691 -14.78072996 14.59971771 -14.78515625 11.41015625 C-14.79031754 10.40912369 -14.79547882 9.40809113 -14.80079651 8.37672424 C-14.80087204 7.45584518 -14.80094757 6.53496613 -14.80102539 5.58618164 C-14.803246 4.77121719 -14.80546661 3.95625275 -14.80775452 3.11659241 C-14.46156292 -2.25699871 -3.96091718 0.01571013 0 0 Z M-2.6875 10.25 C-2.6875 13.55 -2.6875 16.85 -2.6875 20.25 C-0.77114783 20.30423638 1.14564925 20.34289963 3.0625 20.375 C4.12984375 20.39820313 5.1971875 20.42140625 6.296875 20.4453125 C9.23720106 20.25487687 10.83611878 19.77670104 13.3125 18.25 C13.47931109 15.33347826 13.47931109 15.33347826 13.3125 12.25 C11.39843338 9.89358476 11.39843338 9.89358476 8.0546875 10.0546875 C6.14042969 10.08949219 6.14042969 10.08949219 4.1875 10.125 C2.90617187 10.14304688 1.62484375 10.16109375 0.3046875 10.1796875 C-0.68273437 10.20289063 -1.67015625 10.22609375 -2.6875 10.25 Z " fill="#233CE4" transform="translate(172.6875,228.75)"/>
<path d="M0 0 C3.63 0 7.26 0 11 0 C11 0.66 11 1.32 11 2 C11.66 2 12.32 2 13 2 C18.7762545 12.47427483 18.7762545 12.47427483 21.1875 17.4375 C22.63426113 20.28113395 24.05905214 22.51230627 26 25 C26.02505615 24.27820557 26.0501123 23.55641113 26.07592773 22.81274414 C26.19151302 19.562465 26.31440774 16.31250312 26.4375 13.0625 C26.47681641 11.92619141 26.51613281 10.78988281 26.55664062 9.61914062 C26.59853516 8.53955078 26.64042969 7.45996094 26.68359375 6.34765625 C26.72025146 5.34742432 26.75690918 4.34719238 26.79467773 3.31665039 C27 1 27 1 28 0 C31.3 0 34.6 0 38 0 C38 15.51 38 31.02 38 47 C34.37 47 30.74 47 27 47 C24.45969984 44.34882666 23.32984012 42.84693288 21.8125 39.6875 C21.43287109 38.99720703 21.05324219 38.30691406 20.66210938 37.59570312 C19.0565287 34.59068323 18 32.44586973 18 29 C17.34 29 16.68 29 16 29 C14.35 26.03 12.7 23.06 11 20 C10.67 28.91 10.34 37.82 10 47 C6.7 47 3.4 47 0 47 C0 31.49 0 15.98 0 0 Z " fill="#253DDC" transform="translate(202,229)"/>
<path d="M0 0 C0 0.66 0 1.32 0 2 C0.5775 2.185625 1.155 2.37125 1.75 2.5625 C5.85217448 5.18333369 7.58543202 9.3762754 8.75 13.9375 C9.55789083 23.83416268 9.25372217 31.9369144 3 40 C-2.77074697 45.48220963 -8.17541628 46.47053799 -15.9296875 46.30859375 C-23.23805464 45.57403777 -28.1630868 42.56175889 -32.80859375 36.9765625 C-37.33200099 29.47215574 -37.35837054 19.53381636 -35.3125 11.19921875 C-32.71693587 4.76438268 -28.68477308 1.78984872 -23 -2 C-14.78702705 -4.3465637 -7.86241583 -2.62080528 0 0 Z M-21 9 C-24.91304415 14.26236972 -25.66441383 19.52498519 -25 26 C-23.77306073 29.93912083 -22.90648735 32.26501026 -19.6875 34.875 C-16.60690842 36.16454996 -14.35723859 36.93148493 -11 37 C-7.05861653 35.14523131 -5.33635502 33.57180354 -3.125 29.8125 C-1.30929122 23.65926469 -1.00873891 18.55965363 -3.6875 12.625 C-5.57071589 9.2844545 -7.3602168 7.45591328 -11 6 C-15.43338303 6 -17.27033452 6.69871705 -21 9 Z " fill="#F13637" transform="translate(356,231)"/>
<path d="M0 0 C3.63 0 7.26 0 11 0 C11.33 5.28 11.66 10.56 12 16 C12.99 14.824375 13.98 13.64875 15 12.4375 C24.94797155 1.14030964 24.94797155 1.14030964 29.7421875 0.8125 C30.48726563 0.874375 31.23234375 0.93625 32 1 C32.46882399 9.12628256 32.46882399 9.12628256 30.625 12.5625 C29 14 29 14 27 14 C27 14.66 27 15.32 27 16 C26.34 16 25.68 16 25 16 C25 16.66 25 17.32 25 18 C24.34 18 23.68 18 23 18 C25.36714299 22.48765579 25.36714299 22.48765579 28.37890625 26.53125 C32.91559999 31.59787093 32.4159407 36.60322481 32.17578125 43.18359375 C32.08876953 44.57771484 32.08876953 44.57771484 32 46 C29.69458008 46.23242188 29.69458008 46.23242188 27 46 C25.33081055 44.43945312 25.33081055 44.43945312 23.88671875 42.28125 C23.36142578 41.51425781 22.83613281 40.74726563 22.29492188 39.95703125 C21.76447266 39.14621094 21.23402344 38.33539063 20.6875 37.5 C20.13771484 36.68917969 19.58792969 35.87835938 19.02148438 35.04296875 C17.66543407 33.03837265 16.32610824 31.02447668 15 29 C14.01 29.66 13.02 30.32 12 31 C11.61605333 33.77262255 11.39657752 36.34323528 11.3125 39.125 C11.26125977 40.25615234 11.26125977 40.25615234 11.20898438 41.41015625 C11.12645722 43.27291201 11.06155289 45.13643326 11 47 C7.37 47 3.74 47 0 47 C0 31.49 0 15.98 0 0 Z " fill="#273EDC" transform="translate(246,229)"/>
<path d="M0 0 C3.63 0 7.26 0 11 0 C11 12.21 11 24.42 11 37 C18.26 37 25.52 37 33 37 C33 40.3 33 43.6 33 47 C22.11 47 11.22 47 0 47 C0 31.49 0 15.98 0 0 Z " fill="#243CE1" transform="translate(40,229)"/>
<path d="M0 0 C1.28068359 -0.020625 2.56136719 -0.04125 3.88085938 -0.0625 C5.12029297 -0.06765625 6.35972656 -0.0728125 7.63671875 -0.078125 C8.77197998 -0.0874707 9.90724121 -0.09681641 11.0769043 -0.10644531 C14.78646074 0.30221329 17.14311457 1.30196261 20.3125 3.25 C24.15655165 8.40912196 25.0330356 11.86811328 24.3125 18.25 C22.8125 21.0625 22.8125 21.0625 21.3125 23.25 C21.07435843 26.14798362 21.07435843 26.14798362 22.27734375 28.03125 C23.64588816 30.96458292 23.70129192 33.52716075 23.875 36.75 C24.08445113 40.47737522 24.40243323 43.60973291 25.3125 47.25 C21.3525 47.25 17.3925 47.25 13.3125 47.25 C13.10753906 46.10660156 12.90257812 44.96320313 12.69140625 43.78515625 C12.4194769 42.29423324 12.14733026 40.80334984 11.875 39.3125 C11.74029297 38.55775391 11.60558594 37.80300781 11.46679688 37.02539062 C11.06977966 33.33046826 11.06977966 33.33046826 9.3125 30.25 C7.29655418 30.01572222 5.274026 29.83663876 3.25 29.6875 C2.14527344 29.60371094 1.04054687 29.51992188 -0.09765625 29.43359375 C-0.95230469 29.37300781 -1.80695313 29.31242187 -2.6875 29.25 C-2.67589844 30.46558594 -2.66429687 31.68117188 -2.65234375 32.93359375 C-2.64296722 34.51822764 -2.63386687 36.10286318 -2.625 37.6875 C-2.61662109 38.48994141 -2.60824219 39.29238281 -2.59960938 40.11914062 C-2.5909857 42.16295221 -2.6352185 44.20683902 -2.6875 46.25 C-3.6875 47.25 -3.6875 47.25 -6.19140625 47.34765625 C-7.20074219 47.33605469 -8.21007812 47.32445312 -9.25 47.3125 C-10.26191406 47.30347656 -11.27382812 47.29445313 -12.31640625 47.28515625 C-13.09886719 47.27355469 -13.88132813 47.26195312 -14.6875 47.25 C-14.71277002 40.71721214 -14.73033292 34.18443679 -14.74243164 27.65161133 C-14.74747317 25.42732268 -14.75430623 23.20303737 -14.76293945 20.97875977 C-14.77501298 17.78921691 -14.78072996 14.59971771 -14.78515625 11.41015625 C-14.79031754 10.40912369 -14.79547882 9.40809113 -14.80079651 8.37672424 C-14.80087204 7.45584518 -14.80094757 6.53496613 -14.80102539 5.58618164 C-14.803246 4.77121719 -14.80546661 3.95625275 -14.80775452 3.11659241 C-14.46156292 -2.25699871 -3.96091718 0.01571013 0 0 Z M-12.6875 2.25 C-12.6875 16.44 -12.6875 30.63 -12.6875 45.25 C-10.0475 45.25 -7.4075 45.25 -4.6875 45.25 C-4.3575 39.64 -4.0275 34.03 -3.6875 28.25 C9.9375 28.125 9.9375 28.125 13.3125 29.25 C13.3125 28.59 13.3125 27.93 13.3125 27.25 C13.9725 27.25 14.6325 27.25 15.3125 27.25 C15.3125 26.59 15.3125 25.93 15.3125 25.25 C8.95233555 20.62442586 4.10039609 20.8999822 -3.6875 21.25 C-3.6875 17.29 -3.6875 13.33 -3.6875 9.25 C2.2525 9.25 8.1925 9.25 14.3125 9.25 C13.9825 13.87 13.6525 18.49 13.3125 23.25 C17.0888932 23.5481424 17.0888932 23.5481424 19.3125 22.25 C19.3125 21.26 19.3125 20.27 19.3125 19.25 C19.9725 19.58 20.6325 19.91 21.3125 20.25 C22.54658207 17.78183586 22.51447579 16.00338799 22.5625 13.25 C22.60117188 11.9196875 22.60117188 11.9196875 22.640625 10.5625 C22.53234375 9.799375 22.4240625 9.03625 22.3125 8.25 C19.49740007 5.9726499 19.49740007 5.9726499 16.3125 6.25 C16.3125 5.26 16.3125 4.27 16.3125 3.25 C15.23141551 1.94338505 15.23141551 1.94338505 12.62866211 2.13647461 C10.87694702 2.14432983 10.87694702 2.14432983 9.08984375 2.15234375 C7.95538818 2.15484131 6.82093262 2.15733887 5.65209961 2.15991211 C4.19940674 2.16901611 2.74671387 2.17812012 1.25 2.1875 C-3.349375 2.208125 -7.94875 2.22875 -12.6875 2.25 Z M-2.6875 10.25 C-2.6875 13.55 -2.6875 16.85 -2.6875 20.25 C-0.77114783 20.30423638 1.14564925 20.34289963 3.0625 20.375 C4.12984375 20.39820313 5.1971875 20.42140625 6.296875 20.4453125 C9.23720106 20.25487687 10.83611878 19.77670104 13.3125 18.25 C13.47931109 15.33347826 13.47931109 15.33347826 13.3125 12.25 C11.39843338 9.89358476 11.39843338 9.89358476 8.0546875 10.0546875 C6.14042969 10.08949219 6.14042969 10.08949219 4.1875 10.125 C2.90617187 10.14304688 1.62484375 10.16109375 0.3046875 10.1796875 C-0.68273437 10.20289063 -1.67015625 10.22609375 -2.6875 10.25 Z " fill="#5B6FE4" transform="translate(172.6875,228.75)"/>
<path d="M0 0 C10.07604861 0.63661309 10.07604861 0.63661309 14 4 C19.58386436 11.47669974 19.29252653 19.53950486 18.8125 28.5 C17.26286585 35.1753471 13.69049063 40.1550739 8 44 C5.06276222 45.46861889 2.39407643 45.24793404 -0.875 45.3125 C-2.10992187 45.34988281 -3.34484375 45.38726562 -4.6171875 45.42578125 C-8.51536908 44.93513253 -9.61844592 44.03378875 -12 41 C-9.7277937 38.39385923 -7.86062009 37.41080694 -4.5625 36.4375 C1.5387693 34.7294978 1.5387693 34.7294978 5.6875 30.25 C7.93900967 24.51109764 7.75528121 18.08421538 8 12 C7.34 11.67 6.68 11.34 6 11 C5.375 8.4375 5.375 8.4375 5 6 C3.68 5.67 2.36 5.34 1 5 C0.67 3.35 0.34 1.7 0 0 Z " fill="#F63E3D" transform="translate(346,231)"/>
<path d="M0 0 C5.589375 -0.020625 11.17875 -0.04125 16.9375 -0.0625 C18.70343506 -0.071604 20.46937012 -0.08070801 22.28881836 -0.09008789 C23.68082605 -0.09300714 25.07283459 -0.09555567 26.46484375 -0.09765625 C27.55835144 -0.1053302 27.55835144 -0.1053302 28.6739502 -0.11315918 C30.44970076 -0.11347011 32.22534208 -0.06228515 34 0 C35 1 35 1 35.1328125 2.8125 C35.13023438 3.534375 35.12765625 4.25625 35.125 5 C35.12886719 6.0828125 35.12886719 6.0828125 35.1328125 7.1875 C35 9 35 9 34 10 C32.21928754 10.08726223 30.4351686 10.10699041 28.65234375 10.09765625 C27.57275391 10.09443359 26.49316406 10.09121094 25.38085938 10.08789062 C24.24455078 10.07951172 23.10824219 10.07113281 21.9375 10.0625 C20.79732422 10.05798828 19.65714844 10.05347656 18.48242188 10.04882812 C15.65489649 10.03699747 12.8274736 10.0205141 10 10 C10 12.64 10 15.28 10 18 C16.6 18 23.2 18 30 18 C30 18.33 30 18.66 30 19 C23.07 19 16.14 19 9 19 C8.67 15.7 8.34 12.4 8 9 C5.69 9 3.38 9 1 9 C1 21.21 1 33.42 1 46 C12.22 46 23.44 46 35 46 C35 46.33 35 46.66 35 47 C23.45 47 11.9 47 0 47 C0 31.49 0 15.98 0 0 Z " fill="#253CE0" transform="translate(76,229)"/>
<path d="M0 0 C3.63 0 7.26 0 11 0 C10.39048315 6.81846185 8.67516714 13.02560562 6.6875 19.5625 C6.05334223 21.68840125 5.42052896 23.81470403 4.7890625 25.94140625 C4.48258789 26.97152832 4.17611328 28.00165039 3.86035156 29.06298828 C2.11841974 35.00948087 0.54796024 41.00045224 -1 47 C-4.63 47 -8.26 47 -12 47 C-12 46.67 -12 46.34 -12 46 C-8.7 46 -5.4 46 -2 46 C-2.185625 43.5559375 -2.185625 43.5559375 -2.375 41.0625 C-2.44460938 40.14597656 -2.51421875 39.22945313 -2.5859375 38.28515625 C-2.72257812 37.53105469 -2.85921875 36.77695312 -3 36 C-3.66 35.67 -4.32 35.34 -5 35 C-5 33.68 -5 32.36 -5 31 C-5.66 31.66 -6.32 32.32 -7 33 C-8 32 -8 32 -8.0625 28.9375 C-8.041875 27.968125 -8.02125 26.99875 -8 26 C-7.34 25.67 -6.68 25.34 -6 25 C-5.26464556 22.83019458 -5.26464556 22.83019458 -4.74609375 20.1953125 C-4.53146484 19.21949219 -4.31683594 18.24367187 -4.09570312 17.23828125 C-3.87849609 16.21089844 -3.66128906 15.18351563 -3.4375 14.125 C-2.99986443 12.10651756 -2.56111106 10.08827707 -2.12109375 8.0703125 C-1.9295874 7.17070801 -1.73808105 6.27110352 -1.54077148 5.34423828 C-1 3 -1 3 0 0 Z " fill="#F83837" transform="translate(413,229)"/>
<path d="M0 0 C2.31 0 4.62 0 7 0 C7 14.19 7 28.38 7 43 C4.03 43 1.06 43 -2 43 C-2.474375 41.865625 -2.94875 40.73125 -3.4375 39.5625 C-4.63622083 36.24259834 -4.63622083 36.24259834 -6 35 C-6.04063832 33.33382885 -6.042721 31.66611905 -6 30 C-7.32 29.67 -8.64 29.34 -10 29 C-10 27.35 -10 25.7 -10 24 C-10.66 23.67 -11.32 23.34 -12 23 C-11.67 21.02 -11.34 19.04 -11 17 C-10.34 17 -9.68 17 -9 17 C-8.87625 17.969375 -8.7525 18.93875 -8.625 19.9375 C-8.315625 21.4534375 -8.315625 21.4534375 -8 23 C-7.34 23.33 -6.68 23.66 -6 24 C-6 24.66 -6 25.32 -6 26 C-5.34 26 -4.68 26 -4 26 C-4 27.65 -4 29.3 -4 31 C-2.68 30.67 -1.36 30.34 0 30 C0 20.1 0 10.2 0 0 Z " fill="#FB3231" transform="translate(307,231)"/>
<path d="M0 0 C0.66 0.33 1.32 0.66 2 1 C4.31 1 6.62 1 9 1 C9 15.19 9 29.38 9 44 C2 44 2 44 -0.3125 42.3125 C-2.80301872 38.89956693 -4 36.24321666 -4 32 C-3.34 32 -2.68 32 -2 32 C-2.33 29.03 -2.66 26.06 -3 23 C-2.34 23.33 -1.68 23.66 -1 24 C-0.67 16.08 -0.34 8.16 0 0 Z " fill="#344BE5" transform="translate(229,230)"/>
<path d="M0 0 C2.39934786 3.59902178 3.6365106 7.19061411 5.0625 11.25 C5.4656543 12.35794922 5.4656543 12.35794922 5.87695312 13.48828125 C7.47549049 18.0088333 8.48902515 22.23090138 9 27 C5.04 27 1.08 27 -3 27 C-3.99 24.03 -4.98 21.06 -6 18 C-10.62 18 -15.24 18 -20 18 C-20.99 20.97 -21.98 23.94 -23 27 C-24.97909398 27.02686553 -26.95828971 27.04633375 -28.9375 27.0625 C-30.03964844 27.07410156 -31.14179687 27.08570313 -32.27734375 27.09765625 C-35 27 -35 27 -36 26 C-36.04080783 24.00041636 -36.04254356 21.99954746 -36 20 C-35.01 19.67 -34.02 19.34 -33 19 C-32.03171512 17.29359132 -32.03171512 17.29359132 -31.39453125 15.18359375 C-31.13349609 14.41982422 -30.87246094 13.65605469 -30.60351562 12.86914062 C-30.34248047 12.06669922 -30.08144531 11.26425781 -29.8125 10.4375 C-29.53986328 9.63119141 -29.26722656 8.82488281 -28.98632812 7.99414062 C-28.31362519 5.99963545 -27.65543585 4.00024598 -27 2 C-26.01473646 5.47588057 -26.14422946 7.70361404 -26.9375 11.25 C-27.13214844 12.14203125 -27.32679687 13.0340625 -27.52734375 13.953125 C-27.68332031 14.62859375 -27.83929688 15.3040625 -28 16 C-28.66 16 -29.32 16 -30 16 C-29.34 17.65 -28.68 19.3 -28 21 C-29.32 21.99 -30.64 22.98 -32 24 C-29.69 24.33 -27.38 24.66 -25 25 C-24.896875 23.72125 -24.79375 22.4425 -24.6875 21.125 C-24.51171875 18.9453125 -24.51171875 18.9453125 -24 17 C-20.73017263 14.82011509 -19.93845394 14.79345415 -16.1875 14.9375 C-12.32297334 15.02237247 -8.80099735 14.80020997 -5 14 C-4.67 13.01 -4.34 12.02 -4 11 C-4.66 10.67 -5.32 10.34 -6 10 C-5.01 9.278125 -4.02 8.55625 -3 7.8125 C-0.30781491 5.62716848 -0.30781491 5.62716848 0.375 2.1875 C0.25125 1.465625 0.1275 0.74375 0 0 Z " fill="#4559DD" transform="translate(147,249)"/>
<path d="M0 0 C2.64 0 5.28 0 8 0 C10.07202216 4.38781163 10.07202216 4.38781163 9.75 7.125 C9 9 9 9 7 12 C6.34 12 5.68 12 5 12 C5.66 12.66 6.32 13.32 7 14 C7.22705078 16.88916016 7.22705078 16.88916016 7.1953125 20.5390625 C7.18886719 21.84101563 7.18242187 23.14296875 7.17578125 24.484375 C7.15906929 25.86458595 7.14213939 27.24479429 7.125 28.625 C7.11497006 30.01301452 7.10584423 31.40103589 7.09765625 32.7890625 C7.07401863 36.19288026 7.04106867 39.59635506 7 43 C4.69 43 2.38 43 0 43 C-0.99467838 34.90047608 -1.11019829 26.83831097 -1.125 18.6875 C-1.12951172 17.64980469 -1.13402344 16.61210937 -1.13867188 15.54296875 C-1.12844842 10.25403321 -0.92589771 5.21001173 0 0 Z " fill="#FA3233" transform="translate(280,231)"/>
<path d="M0 0 C1.51400391 0.01740234 1.51400391 0.01740234 3.05859375 0.03515625 C4.07050781 0.04417969 5.08242188 0.05320313 6.125 0.0625 C7.29869141 0.07990234 7.29869141 0.07990234 8.49609375 0.09765625 C9.36327973 3.69881881 10.21258616 7.30396473 11.05859375 10.91015625 C11.30544922 11.93431641 11.55230469 12.95847656 11.80664062 14.01367188 C12.03544922 14.99658203 12.26425781 15.97949219 12.5 16.9921875 C12.71470947 17.89815674 12.92941895 18.80412598 13.15063477 19.73754883 C13.49609375 22.09765625 13.49609375 22.09765625 12.49609375 25.09765625 C12.16609375 25.09765625 11.83609375 25.09765625 11.49609375 25.09765625 C11.49609375 23.44765625 11.49609375 21.79765625 11.49609375 20.09765625 C9.33797987 21.04495162 9.33797987 21.04495162 7.49609375 23.09765625 C6.61428121 30.15215661 8.31524743 37.73596361 11.49609375 44.09765625 C13.39142717 44.56288688 13.39142717 44.56288688 15.55859375 44.72265625 C17.50765625 44.90828125 17.50765625 44.90828125 19.49609375 45.09765625 C19.82609375 43.77765625 20.15609375 42.45765625 20.49609375 41.09765625 C20.53881475 42.7637753 20.53673207 44.4314851 20.49609375 46.09765625 C19.49609375 47.09765625 19.49609375 47.09765625 17.2109375 47.1953125 C15.83615234 47.17791016 15.83615234 47.17791016 14.43359375 47.16015625 C13.51449219 47.15113281 12.59539062 47.14210938 11.6484375 47.1328125 C10.93816406 47.12121094 10.22789062 47.10960937 9.49609375 47.09765625 C9.24214844 46.11925781 8.98820312 45.14085937 8.7265625 44.1328125 C6.61049207 35.89448116 6.61049207 35.89448116 4.05859375 27.78515625 C1.47292674 20.35672065 -0.47345578 12.69342979 -2.50390625 5.09765625 C-2.71192871 4.37553955 -2.91995117 3.65342285 -3.13427734 2.90942383 C-3.25625488 2.31154053 -3.37823242 1.71365723 -3.50390625 1.09765625 C-2.50390625 0.09765625 -2.50390625 0.09765625 0 0 Z " fill="#F24E4E" transform="translate(368.50390625,228.90234375)"/>
<path d="M0 0 C3.63 0 7.26 0 11 0 C11.33 5.28 11.66 10.56 12 16 C12.99 14.824375 13.98 13.64875 15 12.4375 C24.94797155 1.14030964 24.94797155 1.14030964 29.7421875 0.8125 C30.48726563 0.874375 31.23234375 0.93625 32 1 C32.46882399 9.12628256 32.46882399 9.12628256 30.625 12.5625 C29 14 29 14 27 14 C27 14.66 27 15.32 27 16 C26.34 16 25.68 16 25 16 C25 16.66 25 17.32 25 18 C24.34 18 23.68 18 23 18 C23.99 20.31 24.98 22.62 26 25 C25.34 25 24.68 25 24 25 C24 24.34 24 23.68 24 23 C23.01 23 22.02 23 21 23 C20.67 23.99 20.34 24.98 20 26 C19.375 23.1875 19.375 23.1875 19 20 C19.66 19.01 20.32 18.02 21 17 C21.66 17 22.32 17 23 17 C23 16.34 23 15.68 23 15 C21.53890937 15.25554054 20.08111904 15.53000372 18.625 15.8125 C17.40683594 16.03873047 17.40683594 16.03873047 16.1640625 16.26953125 C13.64179359 16.87544942 13.64179359 16.87544942 12 20 C11.34 20 10.68 20 10 20 C10 13.73 10 7.46 10 1 C7.03 1 4.06 1 1 1 C1 15.85 1 30.7 1 46 C3.97 46 6.94 46 10 46 C10 41.05 10 36.1 10 31 C10.33 31 10.66 31 11 31 C11 36.28 11 41.56 11 47 C7.37 47 3.74 47 0 47 C0 31.49 0 15.98 0 0 Z " fill="#8795ED" transform="translate(246,229)"/>
<path d="M0 0 C3.3 0 6.6 0 10 0 C10 15.51 10 31.02 10 47 C6.37 47 2.74 47 -1 47 C-3.54030016 44.34882666 -4.67015988 42.84693288 -6.1875 39.6875 C-6.56712891 38.99720703 -6.94675781 38.30691406 -7.33789062 37.59570312 C-8.9434713 34.59068323 -10 32.44586973 -10 29 C-10.66 29 -11.32 29 -12 29 C-13.625 26.25 -13.625 26.25 -15 23 C-14.1875 20.625 -14.1875 20.625 -13 19 C-13 20.32 -13 21.64 -13 23 C-12.34 23 -11.68 23 -11 23 C-11 24.32 -11 25.64 -11 27 C-9.68 26.34 -8.36 25.68 -7 25 C-7 23.68 -7 22.36 -7 21 C-7.99 21.33 -8.98 21.66 -10 22 C-10.8441938 18.02022924 -11.44687265 14.02992782 -12 10 C-5.73528423 17.38341501 -2.81292379 23.27203695 -3 33 C-3.66 33 -4.32 33 -5 33 C-4.01 36.3 -3.02 39.6 -2 43 C1.3 43.66 4.6 44.32 8 45 C8 30.81 8 16.62 8 2 C5.69 2 3.38 2 1 2 C1 11.57 1 21.14 1 31 C0.67 31 0.34 31 0 31 C0 20.77 0 10.54 0 0 Z " fill="#586AD5" transform="translate(230,229)"/>
<path d="M0 0 C3.96 0 7.92 0 12 0 C14.35333796 4.70667591 14.17102038 6.8693886 14 12 C13.01 12.495 13.01 12.495 12 13 C12 12.34 12 11.68 12 11 C11.34 11 10.68 11 10 11 C8.70323188 15.61073111 9.28890861 19.33840089 10 24 C7.4345406 21.4345406 7.45953913 19.52313332 7 16 C6.34 16 5.68 16 5 16 C4.86722656 16.61488281 4.73445312 17.22976562 4.59765625 17.86328125 C4.33275391 19.07564453 4.33275391 19.07564453 4.0625 20.3125 C3.88847656 21.11300781 3.71445313 21.91351563 3.53515625 22.73828125 C3 25 3 25 2 28 C4.64 28 7.28 28 10 28 C10.33 27.34 10.66 26.68 11 26 C11.33 26.99 11.66 27.98 12 29 C8.37 29 4.74 29 1 29 C1 25.04 1 21.08 1 17 C1.66 17 2.32 17 3 17 C2.67 15.68 2.34 14.36 2 13 C0.35 13.33 -1.3 13.66 -3 14 C-3 14.99 -3 15.98 -3 17 C-3.66 17 -4.32 17 -5 17 C-5 18.32 -5 19.64 -5 21 C-5.66 21 -6.32 21 -7 21 C-4.96070337 13.87791101 -2.58175794 6.94403861 0 0 Z " fill="#3C51DF" transform="translate(128,229)"/>
<path d="M0 0 C3.63 0 7.26 0 11 0 C11 12.21 11 24.42 11 37 C18.26 37 25.52 37 33 37 C33 40.3 33 43.6 33 47 C22.11 47 11.22 47 0 47 C0 31.49 0 15.98 0 0 Z M2 2 C2 15.86 2 29.72 2 44 C5.64846005 44.91211501 8.35701531 45.11589698 12.078125 45.09765625 C13.81835938 45.09282227 13.81835938 45.09282227 15.59375 45.08789062 C16.8003125 45.07951172 18.006875 45.07113281 19.25 45.0625 C20.47203125 45.05798828 21.6940625 45.05347656 22.953125 45.04882812 C25.96879946 45.03704815 28.98437498 45.02059853 32 45 C32 42.69 32 40.38 32 38 C24.74 37.67 17.48 37.34 10 37 C10.01160156 34.55722656 10.02320313 32.11445313 10.03515625 29.59765625 C10.04294684 27.24129364 10.04902359 24.88493244 10.05493164 22.52856445 C10.05997174 20.88630536 10.06680378 19.24405077 10.07543945 17.60180664 C10.08751926 15.24624521 10.09323139 12.89074291 10.09765625 10.53515625 C10.10281754 9.79660904 10.10797882 9.05806183 10.11329651 8.2971344 C10.1134925 6.53101912 10.06194719 4.76502854 10 3 C9.67 2.67 9.34 2.34 9 2 C6.69 2 4.38 2 2 2 Z " fill="#6374D9" transform="translate(40,229)"/>
<path d="M0 0 C0.99 0 1.98 0 3 0 C5.60018816 3.90028225 5.15085514 7.47434569 5 12 C5.99 12 6.98 12 8 12 C8.66 8.37 9.32 4.74 10 1 C11.32 1 12.64 1 14 1 C14.30654742 9.61738853 14.39589303 16.93475404 11 25 C8.14740676 25.23381912 5.79527264 25.42067469 3 25 C-1.35131777 20.5036383 -2.08257452 12.6858023 -2.25 6.625 C-2 3 -2 3 0 0 Z " fill="#FB3232" transform="translate(377,249)"/>
<path d="M0 0 C1.16781006 0.00523682 2.33562012 0.01047363 3.53881836 0.01586914 C4.79887695 0.0190918 6.05893555 0.02231445 7.35717773 0.02563477 C8.6976732 0.03399136 10.03816799 0.04245632 11.37866211 0.05102539 C12.72306153 0.05603879 14.06746271 0.06060197 15.41186523 0.06469727 C18.71334151 0.07653051 22.01473014 0.09301568 25.31616211 0.11352539 C25.31616211 0.77352539 25.31616211 1.43352539 25.31616211 2.11352539 C16.40616211 2.11352539 7.49616211 2.11352539 -1.68383789 2.11352539 C-1.68383789 16.30352539 -1.68383789 30.49352539 -1.68383789 45.11352539 C0.95616211 45.11352539 3.59616211 45.11352539 6.31616211 45.11352539 C6.29875977 43.52411133 6.29875977 43.52411133 6.28100586 41.90258789 C6.27162735 40.51456882 6.26252722 39.12654784 6.25366211 37.73852539 C6.2452832 37.03985352 6.2369043 36.34118164 6.22827148 35.62133789 C6.20288086 30.34008789 6.20288086 30.34008789 7.31616211 28.11352539 C10.37084961 27.62915039 10.37084961 27.62915039 14.19116211 27.36352539 C15.44670898 27.26555664 16.70225586 27.16758789 17.99584961 27.06665039 C21.31616211 27.11352539 21.31616211 27.11352539 24.31616211 29.11352539 C25.70255004 34.06491084 25.46419863 39.13870048 24.31616211 44.11352539 C23.98616211 44.11352539 23.65616211 44.11352539 23.31616211 44.11352539 C23.11700195 42.72327148 23.11700195 42.72327148 22.91381836 41.30493164 C22.7372168 40.10739258 22.56061523 38.90985352 22.37866211 37.67602539 C22.20463867 36.48106445 22.03061523 35.28610352 21.85131836 34.05493164 C21.62630998 31.23396863 21.62630998 31.23396863 20.31616211 30.11352539 C18.30021629 29.87924761 16.27768811 29.70016415 14.25366211 29.55102539 C13.14893555 29.46723633 12.04420898 29.38344727 10.90600586 29.29711914 C10.05135742 29.2365332 9.19670898 29.17594727 8.31616211 29.11352539 C8.32776367 30.32911133 8.33936523 31.54469727 8.35131836 32.79711914 C8.36069489 34.38175303 8.36979524 35.96638857 8.37866211 37.55102539 C8.38704102 38.3534668 8.39541992 39.1559082 8.40405273 39.98266602 C8.41267641 42.0264776 8.36844361 44.07036441 8.31616211 46.11352539 C7.31616211 47.11352539 7.31616211 47.11352539 4.81225586 47.21118164 C3.80291992 47.19958008 2.79358398 47.18797852 1.75366211 47.17602539 C0.74174805 47.16700195 -0.27016602 47.15797852 -1.31274414 47.14868164 C-2.09520508 47.13708008 -2.87766602 47.12547852 -3.68383789 47.11352539 C-3.70910791 40.58073753 -3.72667081 34.04796218 -3.73876953 27.51513672 C-3.74381106 25.29084807 -3.75064412 23.06656276 -3.75927734 20.84228516 C-3.77135087 17.6527423 -3.77706785 14.4632431 -3.78149414 11.27368164 C-3.78665543 10.27264908 -3.79181671 9.27161652 -3.7971344 8.24024963 C-3.79720993 7.31937057 -3.79728546 6.39849152 -3.79736328 5.44970703 C-3.79958389 4.63474258 -3.8018045 3.81977814 -3.80409241 2.9801178 C-3.60964703 -0.03806626 -3.04415815 0.12876681 0 0 Z " fill="#7C8BD7" transform="translate(161.683837890625,228.886474609375)"/>
<path d="M0 0 C1.32 0.33 2.64 0.66 4 1 C4.33 3.97 4.66 6.94 5 10 C4.34 10 3.68 10 3 10 C2.67 10.99 2.34 11.98 2 13 C0 13.66666667 -2 14.33333333 -4 15 C-4.33 15.99 -4.66 16.98 -5 18 C-5.66 18 -6.32 18 -7 18 C-7 18.66 -7 19.32 -7 20 C-17.15317287 20.63019694 -17.15317287 20.63019694 -20.6875 18 C-21.120625 17.34 -21.55375 16.68 -22 16 C-19.61215456 13.15175299 -17.75078547 12.45720653 -14.125 11.8125 C-13.28195312 11.65394531 -12.43890625 11.49539063 -11.5703125 11.33203125 C-9.01498548 11.00193581 -6.57335099 10.94004738 -4 11 C-3.896875 10.484375 -3.79375 9.96875 -3.6875 9.4375 C-2.75736134 6.13973565 -1.38604488 3.13366668 0 0 Z " fill="#F93333" transform="translate(356,256)"/>
<path d="M0 0 C10.56 0 21.12 0 32 0 C32 0.33 32 0.66 32 1 C22.76 1.33 13.52 1.66 4 2 C3.34 3.65 2.68 5.3 2 7 C2.66 7 3.32 7 4 7 C4.66 6.34 5.32 5.68 6 5 C8.125 5.375 8.125 5.375 10 6 C10 6.66 10 7.32 10 8 C17.92 8.33 25.84 8.66 34 9 C34 9.33 34 9.66 34 10 C26.08 10 18.16 10 10 10 C10 12.64 10 15.28 10 18 C16.6 18 23.2 18 30 18 C30 18.33 30 18.66 30 19 C23.07 19 16.14 19 9 19 C8.67 15.7 8.34 12.4 8 9 C5.69 9 3.38 9 1 9 C1 21.21 1 33.42 1 46 C12.22 46 23.44 46 35 46 C35 46.33 35 46.66 35 47 C23.45 47 11.9 47 0 47 C0 31.49 0 15.98 0 0 Z " fill="#8291EA" transform="translate(76,229)"/>
<path d="M0 0 C15.1722888 -1.36854721 15.1722888 -1.36854721 19.39453125 1.79296875 C20.95544955 4.15212881 22.03678436 6.34359812 23 9 C23.680625 10.7634375 23.680625 10.7634375 24.375 12.5625 C24.58125 13.366875 24.7875 14.17125 25 15 C24.01 14.34 23.02 13.68 22 13 C22 12.01 22 11.02 22 10 C20.68 10 19.36 10 18 10 C17.34 7.69 16.68 5.38 16 3 C13.36 2.67 10.72 2.34 8 2 C8 16.19 8 30.38 8 45 C10.31 45 12.62 45 15 45 C15 35.43 15 25.86 15 16 C19 17 19 17 21 19 C21.125 22.125 21.125 22.125 21 25 C19.68 23.35 18.36 21.7 17 20 C16.67 28.91 16.34 37.82 16 47 C11.38 47 6.76 47 2 47 C3.98 46.505 3.98 46.505 6 46 C6 31.15 6 16.3 6 1 C4.02 1.33 2.04 1.66 0 2 C0 1.34 0 0.68 0 0 Z " fill="#CB5570" transform="translate(272,229)"/>
<path d="M0 0 C1.32 0.66 2.64 1.32 4 2 C4 2.66 4 3.32 4 4 C4.66 4 5.32 4 6 4 C6.06058594 4.88042969 6.12117188 5.76085937 6.18359375 6.66796875 C6.26738281 7.82941406 6.35117187 8.99085938 6.4375 10.1875 C6.55931641 11.91033203 6.55931641 11.91033203 6.68359375 13.66796875 C6.95403812 16.51598171 7.37521747 19.21210482 8 22 C8.99 22.33 9.98 22.66 11 23 C11 24.98 11 26.96 11 29 C9.35 29.33 7.7 29.66 6 30 C6 28.35 6 26.7 6 25 C4.35 25 2.7 25 1 25 C-2.53173921 17.93652159 -1.11521768 7.60063744 0 0 Z " fill="#FC3230" transform="translate(323,242)"/>
<path d="M0 0 C5.96437167 5.81143907 5.96437167 5.81143907 6.09765625 10.2578125 C6.08605469 11.53398437 6.07445312 12.81015625 6.0625 14.125 C6.05347656 15.40632813 6.04445313 16.68765625 6.03515625 18.0078125 C6.02355469 18.99523437 6.01195312 19.98265625 6 21 C3.69018555 21.23242188 3.69018555 21.23242188 1 21 C-0.63745117 19.43945312 -0.63745117 19.43945312 -2.04296875 17.28125 C-2.55923828 16.51425781 -3.07550781 15.74726563 -3.60742188 14.95703125 C-4.38956055 13.74080078 -4.38956055 13.74080078 -5.1875 12.5 C-6.23772198 10.90244347 -7.29342677 9.30847321 -8.35546875 7.71875 C-8.81590576 7.00654297 -9.27634277 6.29433594 -9.75073242 5.56054688 C-10.36911987 4.78807617 -10.36911987 4.78807617 -11 4 C-11.66 4 -12.32 4 -13 4 C-13 3.01 -13 2.02 -13 1 C-12.01 1 -11.02 1 -10 1 C-10 1.66 -10 2.32 -10 3 C-8.35 3.33 -6.7 3.66 -5 4 C-5 5.98 -5 7.96 -5 10 C-4.34 10 -3.68 10 -3 10 C-2.87625 9.195625 -2.7525 8.39125 -2.625 7.5625 C-2.41875 6.716875 -2.2125 5.87125 -2 5 C-1.34 4.67 -0.68 4.34 0 4 C0 2.68 0 1.36 0 0 Z " fill="#3043DA" transform="translate(272,254)"/>
<path d="M0 0 C5.61 0 11.22 0 17 0 C16.67 0.99 16.34 1.98 16 3 C13.69 2.67 11.38 2.34 9 2 C9 2.66 9 3.32 9 4 C11.83269666 5.41634833 14.47466438 5.3463005 17.625 5.5625 C18.81351563 5.64628906 20.00203125 5.73007813 21.2265625 5.81640625 C22.59941406 5.90728516 22.59941406 5.90728516 24 6 C24 6.33 24 6.66 24 7 C19.05 7 14.1 7 9 7 C9 10.96 9 14.92 9 19 C8.34 18.67 7.68 18.34 7 18 C7 13.38 7 8.76 7 4 C5.68 4.33 4.36 4.66 3 5 C3 5.99 3 6.98 3 8 C2.34 8 1.68 8 1 8 C1 19.22 1 30.44 1 42 C2.98 42 4.96 42 7 42 C7 37.05 7 32.1 7 27 C7.66 27.33 8.32 27.66 9 28 C8.67 32.95 8.34 37.9 8 43 C5.36 43 2.72 43 0 43 C0 28.81 0 14.62 0 0 Z " fill="#273DD4" transform="translate(160,231)"/>
<path d="M0 0 C3.63 0 7.26 0 11 0 C11 0.66 11 1.32 11 2 C11.66 2 12.32 2 13 2 C16.03541315 7.22091062 16.03541315 7.22091062 15.875 10.75 C15 13 15 13 12 15 C11.67 12.69 11.34 10.38 11 8 C11.66 8 12.32 8 13 8 C13 7.34 13 6.68 13 6 C12.34 6 11.68 6 11 6 C11 5.34 11 4.68 11 4 C6.545 3.01 6.545 3.01 2 2 C1.67 16.52 1.34 31.04 1 46 C3.64 46 6.28 46 9 46 C9 35.77 9 25.54 9 15 C9.66 15 10.32 15 11 15 C11 15.66 11 16.32 11 17 C11.66 17 12.32 17 13 17 C12.67 18.32 12.34 19.64 12 21 C11.67 20.67 11.34 20.34 11 20 C10.67 28.91 10.34 37.82 10 47 C6.7 47 3.4 47 0 47 C0 31.49 0 15.98 0 0 Z " fill="#7A88E6" transform="translate(202,229)"/>
<path d="M0 0 C3.96 0 7.92 0 12 0 C11.67 0.99 11.34 1.98 11 3 C11 2.34 11 1.68 11 1 C6.545 1.495 6.545 1.495 2 2 C0.85922343 5.42232972 0.90184883 8.08673217 0.9375 11.6875 C0.94652344 12.86699219 0.95554687 14.04648438 0.96484375 15.26171875 C0.97644531 16.16535156 0.98804688 17.06898438 1 18 C1.99 18 2.98 18 4 18 C4 16.35 4 14.7 4 13 C5.65 13.33 7.3 13.66 9 14 C8.67 15.98 8.34 17.96 8 20 C8.66 20 9.32 20 10 20 C10 24.29 10 28.58 10 33 C7.05568104 28.58352156 6.86037292 24.22369271 6 19 C5.01 22.96 4.02 26.92 3 31 C2.67 31 2.34 31 2 31 C1.67 28.03 1.34 25.06 1 22 C0.34 22 -0.32 22 -1 22 C-1.99 25.3 -2.98 28.6 -4 32 C-4.99 32 -5.98 32 -7 32 C-7 29.36 -7 26.72 -7 24 C-6.34 23.67 -5.68 23.34 -5 23 C-4.2471973 20.6826927 -4.2471973 20.6826927 -3.7109375 17.87109375 C-3.49179687 16.83662109 -3.27265625 15.80214844 -3.046875 14.73632812 C-2.82515625 13.64771484 -2.6034375 12.55910156 -2.375 11.4375 C-2.14554687 10.34501953 -1.91609375 9.25253906 -1.6796875 8.12695312 C-1.1121968 5.41954957 -0.55512967 2.70996508 0 0 Z " fill="#EE696A" transform="translate(389,229)"/>
<path d="M0 0 C3.3 0 6.6 0 10 0 C10 15.51 10 31.02 10 47 C6.37 47 2.74 47 -1 47 C-1 46.01 -1 45.02 -1 44 C1.97 44.33 4.94 44.66 8 45 C8 30.81 8 16.62 8 2 C5.69 2 3.38 2 1 2 C1 11.24 1 20.48 1 30 C0.67 30 0.34 30 0 30 C0 20.1 0 10.2 0 0 Z " fill="#E96162" transform="translate(306,229)"/>
<path d="M0 0 C1.32 0 2.64 0 4 0 C4.125 4.75 4.125 4.75 3 7 C5.31 7 7.62 7 10 7 C12.42207234 12.65150213 13.63751064 16.83739718 13 23 C12.01 23.66 11.02 24.32 10 25 C9.34 24.67 8.68 24.34 8 24 C8.33 22.02 8.66 20.04 9 18 C8.34 18 7.68 18 7 18 C7 16.35 7 14.7 7 13 C5.68 12.34 4.36 11.68 3 11 C3 12.65 3 14.3 3 16 C1.68 16 0.36 16 -1 16 C-1.02701408 13.89590361 -1.04640223 11.79170822 -1.0625 9.6875 C-1.07410156 8.51574219 -1.08570313 7.34398437 -1.09765625 6.13671875 C-1 3 -1 3 0 0 Z " fill="#FB3231" transform="translate(390,231)"/>
<path d="M0 0 C6.26471577 7.38341501 9.18707621 13.27203695 9 23 C8.34 23 7.68 23 7 23 C7.22816406 23.54269531 7.45632812 24.08539063 7.69140625 24.64453125 C7.97886719 25.35996094 8.26632813 26.07539063 8.5625 26.8125 C8.85253906 27.52019531 9.14257812 28.22789062 9.44140625 28.95703125 C10 31 10 31 9 34 C7.82539808 32.06730041 6.66055528 30.12866687 5.5 28.1875 C4.8503125 27.10855469 4.200625 26.02960938 3.53125 24.91796875 C2 22 2 22 2 19 C1.34 19 0.68 19 0 19 C-1.625 16.25 -1.625 16.25 -3 13 C-2.1875 10.625 -2.1875 10.625 -1 9 C-1 10.32 -1 11.64 -1 13 C-0.34 13 0.32 13 1 13 C1 14.32 1 15.64 1 17 C2.32 16.34 3.64 15.68 5 15 C5 13.68 5 12.36 5 11 C4.01 11.33 3.02 11.66 2 12 C1.1558062 8.02022924 0.55312735 4.02992782 0 0 Z " fill="#263CDA" transform="translate(218,239)"/>
<path d="M0 0 C2.475 0.99 2.475 0.99 5 2 C5.33 7.28 5.66 12.56 6 18 C3.03 18 0.06 18 -3 18 C-3.02701408 15.89590361 -3.04640223 13.79170822 -3.0625 11.6875 C-3.07410156 10.51574219 -3.08570313 9.34398437 -3.09765625 8.13671875 C-3 5 -3 5 -2 2 C-1.34 2 -0.68 2 0 2 C0 1.34 0 0.68 0 0 Z " fill="#273EDB" transform="translate(189,257)"/>
<path d="M0 0 C-0.33 0.66 -0.66 1.32 -1 2 C-3.97 1.34 -6.94 0.68 -10 0 C-9.21869929 2.49552484 -9.21869929 2.49552484 -8 5 C-7.01 5.33 -6.02 5.66 -5 6 C-4.67 7.65 -4.34 9.3 -4 11 C-3.01 11.33 -2.02 11.66 -1 12 C-1.33 13.65 -1.66 15.3 -2 17 C-4 14 -4 14 -5.375 11.4375 C-7.16411516 8.75382726 -8.03639082 8.11267177 -11 7 C-13.37301389 6.97022256 -13.37301389 6.97022256 -15.75 7.375 C-16.94882812 7.54128906 -16.94882812 7.54128906 -18.171875 7.7109375 C-18.77515625 7.80632812 -19.3784375 7.90171875 -20 8 C-17.9859524 4.9789286 -16.36720387 3.39332574 -13 2 C-13 1.34 -13 0.68 -13 0 C-14.43836751 0.11458693 -15.87570966 0.24209116 -17.3125 0.375 C-18.51326172 0.47941406 -18.51326172 0.47941406 -19.73828125 0.5859375 C-22.27224441 0.89564426 -22.27224441 0.89564426 -25 3 C-27.1875 2.625 -27.1875 2.625 -29 2 C-19.33368735 -4.96873703 -10.81266004 -3.60422001 0 0 Z " fill="#F73333" transform="translate(356,231)"/>
<path d="M0 0 C0.33 0 0.66 0 1 0 C1 2.97 1 5.94 1 9 C-6.59 9 -14.18 9 -22 9 C-22 12.3 -22 15.6 -22 19 C-13.75 19 -5.5 19 3 19 C3 19.99 3 20.98 3 22 C2.67 21.34 2.34 20.68 2 20 C0.70366379 21.06645115 0.70366379 21.06645115 0.9375 23.5625 C0.958125 24.366875 0.97875 25.17125 1 26 C-0.98 26 -2.96 26 -5 26 C-4.67 24.68 -4.34 23.36 -4 22 C-5.28777344 22.01160156 -6.57554688 22.02320313 -7.90234375 22.03515625 C-9.58072772 22.0445327 -11.25911326 22.05363305 -12.9375 22.0625 C-14.21270508 22.07506836 -14.21270508 22.07506836 -15.51367188 22.08789062 C-16.32255859 22.09111328 -17.13144531 22.09433594 -17.96484375 22.09765625 C-18.7137085 22.10289307 -19.46257324 22.10812988 -20.23413086 22.11352539 C-22 22 -22 22 -23 21 C-23.07271741 18.64686445 -23.08370868 16.29166332 -23.0625 13.9375 C-23.05347656 12.64714844 -23.04445313 11.35679687 -23.03515625 10.02734375 C-23.02355469 9.02832031 -23.01195313 8.02929688 -23 7 C-15.28410183 6.8432436 -7.68483539 7.32546899 0 8 C0 5.36 0 2.72 0 0 Z " fill="#4C5EDA" transform="translate(108,247)"/>
<path d="M0 0 C2.39073445 3.82517513 2.55966552 7.59665524 3 12 C2.01 12.495 2.01 12.495 1 13 C1 11.35 1 9.7 1 8 C-1.15811388 8.94729537 -1.15811388 8.94729537 -3 11 C-3.88181254 18.05450036 -2.18084632 25.63830736 1 32 C2.89533342 32.46523063 2.89533342 32.46523063 5.0625 32.625 C7.0115625 32.810625 7.0115625 32.810625 9 33 C9.33 31.68 9.66 30.36 10 29 C10.042721 30.66611905 10.04063832 32.33382885 10 34 C9 35 9 35 6.71484375 35.09765625 C5.34005859 35.08025391 5.34005859 35.08025391 3.9375 35.0625 C3.01839844 35.05347656 2.09929687 35.04445313 1.15234375 35.03515625 C0.44207031 35.02355469 -0.26820313 35.01195312 -1 35 C-1.25394531 34.02160156 -1.50789063 33.04320312 -1.76953125 32.03515625 C-3.9965056 23.44884867 -3.9965056 23.44884867 -6.6875 15 C-7.96828429 11.33166673 -8.58923903 7.86115307 -9 4 C-6.03 4.99 -3.06 5.98 0 7 C-0.2784375 5.824375 -0.2784375 5.824375 -0.5625 4.625 C-1 2 -1 2 0 0 Z " fill="#EF5554" transform="translate(379,241)"/>
<path d="M0 0 C3.6327391 2.42182607 3.68131947 3.50445117 4.6875 7.625 C4.93886719 8.62789062 5.19023437 9.63078125 5.44921875 10.6640625 C5.63097656 11.43492187 5.81273437 12.20578125 6 13 C5.03320312 13.41378906 5.03320312 13.41378906 4.046875 13.8359375 C1.71229528 14.84757889 1.71229528 14.84757889 1.25 17.625 C1.1675 18.40875 1.085 19.1925 1 20 C0.01 20.33 -0.98 20.66 -2 21 C-2.5607518 19.10972377 -3.09787859 17.2124289 -3.625 15.3125 C-3.92664063 14.25675781 -4.22828125 13.20101562 -4.5390625 12.11328125 C-5.05006883 8.66182322 -4.57755071 7.0586325 -3 4 C-2.01 4.33 -1.02 4.66 0 5 C0 3.35 0 1.7 0 0 Z " fill="#3147DC" transform="translate(141,236)"/>
<path d="M0 0 C0.33 0 0.66 0 1 0 C1.10957031 0.66386719 1.21914063 1.32773438 1.33203125 2.01171875 C2.4854282 8.99124341 2.4854282 8.99124341 6 15 C8.57099402 16.34689915 8.57099402 16.34689915 11 17 C10.360625 17.28875 9.72125 17.5775 9.0625 17.875 C6.84793921 18.82823451 6.84793921 18.82823451 6 21 C5.34 21 4.68 21 4 21 C3.87625 20.030625 3.7525 19.06125 3.625 18.0625 C3.315625 16.5465625 3.315625 16.5465625 3 15 C2.34 14.67 1.68 14.34 1 14 C-0.10348459 10.91857132 -0.10523224 7.99765038 -0.0625 4.75 C-0.05347656 3.85796875 -0.04445313 2.9659375 -0.03515625 2.046875 C-0.02355469 1.37140625 -0.01195312 0.6959375 0 0 Z M-1 16 C0.125 19.75 0.125 19.75 -1 22 C-0.2575 21.7525 0.485 21.505 1.25 21.25 C2.1575 21.1675 3.065 21.085 4 21 C4.53625 21.61875 5.0725 22.2375 5.625 22.875 C9.43867137 26.28723228 14.04336015 25.82908138 19 26 C19 26.33 19 26.66 19 27 C9.75286002 27.56327756 2.7286515 26.92132076 -4.5625 20.875 C-6 19 -6 19 -6 17 C-4.35 16.67 -2.7 16.34 -1 16 Z " fill="#EF5E61" transform="translate(330,250)"/>
<path d="M0 0 C9.87355719 0.62381952 9.87355719 0.62381952 14 4 C15.3125 6.1875 15.3125 6.1875 16 8 C14.35 7.67 12.7 7.34 11 7 C10.67 7.99 10.34 8.98 10 10 C9.34 9.67 8.68 9.34 8 9 C8 9.66 8 10.32 8 11 C7.34 11 6.68 11 6 11 C5.67 9.35 5.34 7.7 5 6 C3.68 5.67 2.36 5.34 1 5 C0.67 3.35 0.34 1.7 0 0 Z " fill="#F73E3F" transform="translate(346,231)"/>
<path d="M0 0 C1.98 0.66 3.96 1.32 6 2 C6.33 1.34 6.66 0.68 7 0 C13.33333333 0 19.66666667 0 26 0 C25.67 1.32 25.34 2.64 25 4 C16.75 4 8.5 4 0 4 C0 2.68 0 1.36 0 0 Z " fill="#233BE8" transform="translate(78,269)"/>
<path d="M0 0 C0.33 0.99 0.66 1.98 1 3 C0.071875 3.45375 -0.85625 3.9075 -1.8125 4.375 C-5.03921389 5.9421633 -5.03921389 5.9421633 -8 8 C-8.66 7.01 -9.32 6.02 -10 5 C-11.76462683 8.08809695 -12 9.23312136 -12 13 C-13.32 12.67 -14.64 12.34 -16 12 C-14.83456388 3.70279064 -14.83456388 3.70279064 -11.625 1 C-7.16113132 -0.7005214 -4.72679588 -1.18169897 0 0 Z " fill="#FC3230" transform="translate(343,231)"/>
<path d="M0 0 C0 2.66666667 0 5.33333333 0 8 C-0.99 8 -1.98 8 -3 8 C-3.11039334 16.40215965 -2.95458649 24.64736824 -2 33 C-4 32 -4 32 -5.1015625 29.39453125 C-7.37242747 20.81461098 -7.15716108 11.58336877 -3.0703125 3.63671875 C-2 2 -2 2 0 0 Z " fill="#E84847" transform="translate(326,234)"/>
<path d="M0 0 C1.65 0 3.3 0 5 0 C5 2.97 5 5.94 5 9 C2.69 9.66 0.38 10.32 -2 11 C-2 11.66 -2 12.32 -2 13 C-4.97 12.505 -4.97 12.505 -8 12 C-6.75023244 8.34683329 -6.32901247 7.21934164 -3 5 C-0.8125 5.375 -0.8125 5.375 1 6 C1.33 5.34 1.66 4.68 2 4 C1.34 3.67 0.68 3.34 0 3 C0 2.01 0 1.02 0 0 Z " fill="#243DE4" transform="translate(273,230)"/>
<path d="M0 0 C2.31 0 4.62 0 7 0 C7 3.63 7 7.26 7 11 C6.34 11 5.68 11 5 11 C5 10.01 5 9.02 5 8 C4.34 8 3.68 8 3 8 C3 8.66 3 9.32 3 10 C1.68 10.33 0.36 10.66 -1 11 C-0.67 7.37 -0.34 3.74 0 0 Z " fill="#FA3333" transform="translate(414,231)"/>
<path d="M0 0 C1.32 0 2.64 0 4 0 C4.05425226 2.39614126 4.09379027 4.79103853 4.125 7.1875 C4.14175781 7.86103516 4.15851563 8.53457031 4.17578125 9.22851562 C4.21538674 13.28807807 3.80020002 16.34998815 2 20 C1.01 20 0.02 20 -1 20 C-0.125 16.125 -0.125 16.125 1 15 C1.07148199 13.64756083 1.08399454 12.29165633 1.0625 10.9375 C1.041875 9.638125 1.02125 8.33875 1 7 C0.34 8.32 -0.32 9.64 -1 11 C-2.31625194 8.36749612 -1.74813658 7.19820944 -1.0625 4.375 C-0.86785156 3.55773437 -0.67320312 2.74046875 -0.47265625 1.8984375 C-0.23869141 0.95871094 -0.23869141 0.95871094 0 0 Z M-5 11 C-4.01 11.33 -3.02 11.66 -2 12 C-2.99 12 -3.98 12 -5 12 C-5 11.67 -5 11.34 -5 11 Z " fill="#F93535" transform="translate(387,250)"/>
<path d="M0 0 C0.99 0 1.98 0 3 0 C3 5.61 3 11.22 3 17 C1.68 17 0.36 17 -1 17 C-1.02709444 14.91673869 -1.04643873 12.83337559 -1.0625 10.75 C-1.07410156 9.58984375 -1.08570313 8.4296875 -1.09765625 7.234375 C-1.01782092 4.59022872 -0.78643778 2.50173909 0 0 Z " fill="#223CE6" transform="translate(206,256)"/>
<path d="M0 0 C4 1 4 1 6 3 C6.125 6.125 6.125 6.125 6 9 C4.68 7.35 3.36 5.7 2 4 C1.67 12.91 1.34 21.82 1 31 C-3.62 31 -8.24 31 -13 31 C-13 30.67 -13 30.34 -13 30 C-8.71 30 -4.42 30 0 30 C0 20.1 0 10.2 0 0 Z " fill="#EF858A" transform="translate(287,245)"/>
<path d="M0 0 C1.2194696 5.03693964 1.16321305 9.9594101 0 15 C-0.33 15 -0.66 15 -1 15 C-1.13277344 14.07316406 -1.26554688 13.14632813 -1.40234375 12.19140625 C-1.66724609 10.39509766 -1.66724609 10.39509766 -1.9375 8.5625 C-2.11152344 7.36753906 -2.28554687 6.17257812 -2.46484375 4.94140625 C-2.68985213 2.12044324 -2.68985213 2.12044324 -4 1 C-6.01594582 0.76572222 -8.038474 0.58663876 -10.0625 0.4375 C-12.021875 0.293125 -13.98125 0.14875 -16 0 C-16 5.61 -16 11.22 -16 17 C-16.33 17 -16.66 17 -17 17 C-17 11.06 -17 5.12 -17 -1 C-4.90322581 -2.4516129 -4.90322581 -2.4516129 0 0 Z " fill="#7B95E9" transform="translate(186,258)"/>
<path d="M0 0 C2.97 0 5.94 0 9 0 C10.60725635 3.21451269 10.05748185 6.43612536 10 10 C9.67 9.34 9.34 8.68 9 8 C6.36 8.33 3.72 8.66 1 9 C1.66 6.36 2.32 3.72 3 1 C2.01 0.67 1.02 0.34 0 0 Z " fill="#F23737" transform="translate(391,230)"/>
<path d="M0 0 C3.85810292 3.69035931 4.1648359 6.04828479 4.5 11.375 C4.7371205 15.12658498 5.08447074 18.33788297 6 22 C2.04 22 -1.92 22 -6 22 C-6 21.67 -6 21.34 -6 21 C-2.04 20.505 -2.04 20.505 2 20 C1.85834107 17.60385425 1.71181159 15.20817103 1.5625 12.8125 C1.52318359 12.13896484 1.48386719 11.46542969 1.44335938 10.77148438 C1.21072435 7.10300898 0.82792989 3.58305794 0 0 Z " fill="#7C89DD" transform="translate(192,254)"/>
<path d="M0 0 C-0.33 0.66 -0.66 1.32 -1 2 C-2.7015625 1.505 -2.7015625 1.505 -4.4375 1 C-10.41821474 -0.4687621 -16.11000529 -1.09379027 -21.8125 1.5625 C-25 3 -25 3 -27.4375 2.6875 C-27.953125 2.460625 -28.46875 2.23375 -29 2 C-19.33368735 -4.96873703 -10.81266004 -3.60422001 0 0 Z " fill="#E97171" transform="translate(356,231)"/>
<path d="M0 0 C0.24179464 4.11050895 -0.60655847 7.14754401 -2 11 C-2.33 12.32 -2.66 13.64 -3 15 C-6.63 15 -10.26 15 -14 15 C-14 14.67 -14 14.34 -14 14 C-10.7 14 -7.4 14 -4 14 C-4.185625 11.5559375 -4.185625 11.5559375 -4.375 9.0625 C-4.44460938 8.14597656 -4.51421875 7.22945313 -4.5859375 6.28515625 C-4.72257812 5.53105469 -4.85921875 4.77695312 -5 4 C-5.66 3.67 -6.32 3.34 -7 3 C-2.25 0 -2.25 0 0 0 Z " fill="#F36A6A" transform="translate(415,261)"/>
<path d="M0 0 C0.98526354 3.47588057 0.85577054 5.70361404 0.0625 9.25 C-0.13214844 10.14203125 -0.32679687 11.0340625 -0.52734375 11.953125 C-0.68332031 12.62859375 -0.83929688 13.3040625 -1 14 C-1.66 14 -2.32 14 -3 14 C-2.34 15.65 -1.68 17.3 -1 19 C-4.75 21 -4.75 21 -7 21 C-6.34539858 18.22948779 -5.54456107 15.57195875 -4.58984375 12.890625 C-4.32236328 12.13652344 -4.05488281 11.38242187 -3.77929688 10.60546875 C-3.36260742 9.43951172 -3.36260742 9.43951172 -2.9375 8.25 C-2.65583984 7.45722656 -2.37417969 6.66445313 -2.08398438 5.84765625 C-1.39098013 3.8978477 -0.69571181 1.94884411 0 0 Z " fill="#5B6ADB" transform="translate(120,251)"/>
<path d="M0 0 C2.36495953 2.78727373 4.37158461 5.55298321 6.125 8.75 C7.62690809 12.04314457 7.62690809 12.04314457 10 13 C9.34 14.32 8.68 15.64 8 17 C7.01 16.67 6.02 16.34 5 16 C5 14.35 5 12.7 5 11 C4.34 11 3.68 11 3 11 C0.18037811 8.18037811 0.00812929 7.47149878 -0.0625 3.375 C-0.041875 2.26125 -0.02125 1.1475 0 0 Z " fill="#F05C5B" transform="translate(298,246)"/>
<path d="M0 0 C0.33 0 0.66 0 1 0 C0.67 4.62 0.34 9.24 0 14 C-0.66 14 -1.32 14 -2 14 C-1.9071875 15.8871875 -1.9071875 15.8871875 -1.8125 17.8125 C-1.79173989 21.72231986 -1.79173989 21.72231986 -3.5 24 C-3.995 24.33 -4.49 24.66 -5 25 C-6 24 -6 24 -6.0625 20.9375 C-6.041875 19.968125 -6.02125 18.99875 -6 18 C-5.34 17.67 -4.68 17.34 -4 17 C-3.1986381 14.14258915 -2.50291494 11.33288557 -1.875 8.4375 C-1.69324219 7.63119141 -1.51148438 6.82488281 -1.32421875 5.99414062 C-0.87532882 3.99776175 -0.43670257 1.9990802 0 0 Z " fill="#EF7372" transform="translate(411,237)"/>
<path d="M0 0 C0 2.64 0 5.28 0 8 C-0.66 8 -1.32 8 -2 8 C-2 5.69 -2 3.38 -2 1 C-12.56 1 -23.12 1 -34 1 C-34 0.67 -34 0.34 -34 0 C-29.64028686 -0.16775443 -25.28038583 -0.32829897 -20.92016602 -0.48217773 C-19.43702051 -0.53553529 -17.95394439 -0.59085973 -16.47094727 -0.64819336 C-14.33885663 -0.73027921 -12.20661621 -0.80528001 -10.07421875 -0.87890625 C-8.14968872 -0.94960327 -8.14968872 -0.94960327 -6.1862793 -1.02172852 C-3 -1 -3 -1 0 0 Z " fill="#455DCB" transform="translate(111,230)"/>
<path d="M0 0 C0.99 0.33 1.98 0.66 3 1 C2.0919838 2.13199353 1.17316174 3.25532363 0.25 4.375 C-0.26046875 5.00148438 -0.7709375 5.62796875 -1.296875 6.2734375 C-3.11689024 8.11849882 -4.59333869 9.06197059 -7 10 C-7.99 10 -8.98 10 -10 10 C-10 9.34 -10 8.68 -10 8 C-9.34 8 -8.68 8 -8 8 C-7.95875 7.38125 -7.9175 6.7625 -7.875 6.125 C-7.58625 5.42375 -7.2975 4.7225 -7 4 C-4 2.875 -4 2.875 -1 2 C-0.67 1.34 -0.34 0.68 0 0 Z " fill="#EF6564" transform="translate(359,266)"/>
<path d="M0 0 C3.63 0 7.26 0 11 0 C10.51855059 4.81449408 10.1991413 7.60171741 8 12 C8 8.7 8 5.4 8 2 C5.69 2 3.38 2 1 2 C0.67 3.98 0.34 5.96 0 8 C-0.33 8 -0.66 8 -1 8 C-0.67 5.36 -0.34 2.72 0 0 Z " fill="#EB7E7F" transform="translate(413,229)"/>
<path d="M0 0 C4.21041405 0.86122106 5.73274935 1.64835441 8.375 5.125 C10.42817359 9.15498948 10.31256893 12.54589275 10 17 C9.34 17.33 8.68 17.66 8 18 C7.95101562 17.21753906 7.90203125 16.43507812 7.8515625 15.62890625 C7.77679688 14.61699219 7.70203125 13.60507813 7.625 12.5625 C7.52058594 11.04849609 7.52058594 11.04849609 7.4140625 9.50390625 C7.27742187 8.67761719 7.14078125 7.85132813 7 7 C4.99967627 5.99983813 3.16874252 5.50603992 1 5 C1 4.34 1 3.68 1 3 C0.67 2.01 0.34 1.02 0 0 Z " fill="#6E79D4" transform="translate(187,230)"/>
<path d="M0 0 C0.33 0.66 0.66 1.32 1 2 C1.66 2 2.32 2 3 2 C3 3.65 3 5.3 3 7 C4.32 7.33 5.64 7.66 7 8 C7.12375 8.78375 7.2475 9.5675 7.375 10.375 C7.79117993 13.14057822 7.79117993 13.14057822 10 15 C10.125 17.625 10.125 17.625 10 20 C5.12866865 14.56659195 0 7.42678976 0 0 Z " fill="#ED6463" transform="translate(294,253)"/>
<path d="M0 0 C1.65493515 2.97888328 2.38490879 5.66093343 3 9 C3.33 9.66 3.66 10.32 4 11 C5.89533342 11.46523063 5.89533342 11.46523063 8.0625 11.625 C9.361875 11.74875 10.66125 11.8725 12 12 C12.33 10.68 12.66 9.36 13 8 C13.042721 9.66611905 13.04063832 11.33382885 13 13 C12 14 12 14 9.71484375 14.09765625 C8.34005859 14.08025391 8.34005859 14.08025391 6.9375 14.0625 C6.01839844 14.05347656 5.09929687 14.04445313 4.15234375 14.03515625 C3.44207031 14.02355469 2.73179687 14.01195312 2 14 C1.47061343 12.04396149 0.95173199 10.08507711 0.4375 8.125 C0.14746094 7.03445313 -0.14257812 5.94390625 -0.44140625 4.8203125 C-1 2 -1 2 0 0 Z " fill="#E97F7D" transform="translate(376,262)"/>
<path d="M0 0 C2.2477975 2.05233685 3.0022242 3.00667261 4 6 C4.66 6 5.32 6 6 6 C5.67 7.98 5.34 9.96 5 12 C4.01 12 3.02 12 2 12 C2 10.68 2 9.36 2 8 C1.34 8 0.68 8 0 8 C-0.66 7.34 -1.32 6.68 -2 6 C-1.44444444 1.44444444 -1.44444444 1.44444444 0 0 Z " fill="#253CE4" transform="translate(217,244)"/>
<path d="M0 0 C-0.75 4.75 -0.75 4.75 -3 7 C-3 7.66 -3 8.32 -3 9 C-2.34 9 -1.68 9 -1 9 C-1.33 9.99 -1.66 10.98 -2 12 C-4.72957339 9.64264116 -5.88893396 7.41866474 -7 4 C-7 3.01 -7 2.02 -7 1 C-4 0 -4 0 0 0 Z " fill="#243BE3" transform="translate(232,261)"/>
<path d="M0 0 C2.97 0 5.94 0 9 0 C12.03541315 5.22091062 12.03541315 5.22091062 11.875 8.75 C11 11 11 11 8 13 C7.67 10.69 7.34 8.38 7 6 C7.66 6 8.32 6 9 6 C9 5.34 9 4.68 9 4 C8.34 4 7.68 4 7 4 C7 3.34 7 2.68 7 2 C4.69 1.67 2.38 1.34 0 1 C0 0.67 0 0.34 0 0 Z " fill="#4055E1" transform="translate(206,231)"/>
<path d="M0 0 C0.33 0 0.66 0 1 0 C1.0814222 2.22855574 1.13938079 4.45797655 1.1875 6.6875 C1.22230469 7.92886719 1.25710938 9.17023438 1.29296875 10.44921875 C0.98043229 14.23716062 0.39855828 16.07811992 -2 19 C-5.6875 19.8125 -5.6875 19.8125 -9 20 C-8 18 -8 18 -6.125 17.3125 C-2.91898635 15.3323151 -1.99187022 12.4845967 -1 9 C-0.50581164 6.00635898 -0.1990405 3.02678836 0 0 Z " fill="#EE7273" transform="translate(354,248)"/>
<path d="M0 0 C0.99 0.33 1.98 0.66 3 1 C3 2.32 3 3.64 3 5 C2.34 5 1.68 5 1 5 C1 6.98 1 8.96 1 11 C0.01 11 -0.98 11 -2 11 C-2 9.02 -2 7.04 -2 5 C-2.99 4.67 -3.98 4.34 -5 4 C-2 2 -2 2 0 2 C0 1.34 0 0.68 0 0 Z " fill="#F43A3A" transform="translate(295,243)"/>
<path d="M0 0 C2.5654594 2.5654594 2.54046087 4.47686668 3 8 C-3.875 7.125 -3.875 7.125 -5 6 C-5.04063832 4.33382885 -5.042721 2.66611905 -5 1 C-4.67 1.66 -4.34 2.32 -4 3 C-3.34 3 -2.68 3 -2 3 C-2 2.34 -2 1.68 -2 1 C-1.34 0.67 -0.68 0.34 0 0 Z " fill="#FB3230" transform="translate(376,240)"/>
<path d="M0 0 C0.33 0 0.66 0 1 0 C1.10957031 0.66386719 1.21914063 1.32773438 1.33203125 2.01171875 C2.4854282 8.99124341 2.4854282 8.99124341 6 15 C8.57099402 16.34689915 8.57099402 16.34689915 11 17 C10.01 17.66 9.02 18.32 8 19 C4.59680547 17.86560182 3.31170301 16.69698684 1 14 C-0.05418906 10.89114947 -0.10545875 8.01486473 -0.0625 4.75 C-0.05347656 3.85796875 -0.04445313 2.9659375 -0.03515625 2.046875 C-0.02355469 1.37140625 -0.01195312 0.6959375 0 0 Z " fill="#EB6A6B" transform="translate(330,250)"/>
<path d="M0 0 C0.99 0.33 1.98 0.66 3 1 C3 1.66 3 2.32 3 3 C2.34 3 1.68 3 1 3 C1.33 6.3 1.66 9.6 2 13 C-2 10 -2 10 -2.8125 7.5 C-3 5 -3 5 -2 2 C-1.34 2 -0.68 2 0 2 C0 1.34 0 0.68 0 0 Z " fill="#233CE8" transform="translate(189,257)"/>
<path d="M0 0 C0.99 0 1.98 0 3 0 C3 0.66 3 1.32 3 2 C4.65 2.33 6.3 2.66 8 3 C8 4.98 8 6.96 8 9 C8.99 9.33 9.98 9.66 11 10 C10.01 11.485 10.01 11.485 9 13 C8.51789063 12.278125 8.03578125 11.55625 7.5390625 10.8125 C6.90742188 9.884375 6.27578125 8.95625 5.625 8 C4.99851562 7.071875 4.37203125 6.14375 3.7265625 5.1875 C3.15679687 4.465625 2.58703125 3.74375 2 3 C1.34 3 0.68 3 0 3 C0 2.01 0 1.02 0 0 Z " fill="#505FD9" transform="translate(259,255)"/>
<path d="M0 0 C3.22269618 3.79817765 5.74520378 7.57391854 8 12 C7.67 12.66 7.34 13.32 7 14 C6.34 13.67 5.68 13.34 5 13 C5 12.34 5 11.68 5 11 C4.01 11.33 3.02 11.66 2 12 C1.1558062 8.02022924 0.55312735 4.02992782 0 0 Z " fill="#4759DA" transform="translate(218,239)"/>
<path d="M0 0 C0.33 0 0.66 0 1 0 C1.33 4.95 1.66 9.9 2 15 C3.65 13.02 5.3 11.04 7 9 C7 12.34419152 6.52480606 13.06840321 4.625 15.6875 C4.18414062 16.31011719 3.74328125 16.93273437 3.2890625 17.57421875 C2.65097656 18.27998047 2.65097656 18.27998047 2 19 C1.34 19 0.68 19 0 19 C0 12.73 0 6.46 0 0 Z " fill="#8694E6" transform="translate(256,230)"/>
<path d="M0 0 C3.96 0 7.92 0 12 0 C12 0.33 12 0.66 12 1 C7.545 1.495 7.545 1.495 3 2 C2.67 3.32 2.34 4.64 2 6 C4.64 6 7.28 6 10 6 C10 6.33 10 6.66 10 7 C6.7 7 3.4 7 0 7 C-1 3 -1 3 0 0 Z " fill="#263DD4" transform="translate(169,250)"/>
<path d="M0 0 C1.61328125 1.671875 1.61328125 1.671875 3 4 C2.41796875 6.578125 2.41796875 6.578125 1.1875 9.25 C0.78917969 10.14203125 0.39085937 11.0340625 -0.01953125 11.953125 C-0.34308594 12.62859375 -0.66664063 13.3040625 -1 14 C-1.33 14 -1.66 14 -2 14 C-2.24915939 12.23186888 -2.47366632 10.46025018 -2.6875 8.6875 C-2.81511719 7.70136719 -2.94273437 6.71523437 -3.07421875 5.69921875 C-3 3 -3 3 -1.51953125 1.14453125 C-1.01808594 0.76683594 -0.51664062 0.38914063 0 0 Z " fill="#F35A5B" transform="translate(333,235)"/>
<path d="M0 0 C0.66 0 1.32 0 2 0 C3.60080151 4.00200378 2.29279692 7.04556236 1 11 C3.64 11 6.28 11 9 11 C9.33 10.34 9.66 9.68 10 9 C10.33 9.99 10.66 10.98 11 12 C7.37 12 3.74 12 0 12 C0 8.04 0 4.08 0 0 Z " fill="#5E6FDA" transform="translate(129,246)"/>
<path d="M0 0 C0.33 0 0.66 0 1 0 C1.33 3.63 1.66 7.26 2 11 C2.33 11 2.66 11 3 11 C3.33 14.63 3.66 18.26 4 22 C2 21 2 21 0.8828125 18.4296875 C-0.10445072 14.59421356 -0.22387631 11.04962876 -0.125 7.125 C-0.11146484 6.09246094 -0.11146484 6.09246094 -0.09765625 5.0390625 C-0.07432513 3.35922162 -0.03846326 1.67956254 0 0 Z " fill="#F1847F" transform="translate(320,245)"/>
<path d="M0 0 C1.65 0 3.3 0 5 0 C5 2.97 5 5.94 5 9 C3.68 9.33 2.36 9.66 1 10 C1.33 8.02 1.66 6.04 2 4 C1.34 3.67 0.68 3.34 0 3 C0 2.01 0 1.02 0 0 Z " fill="#333CCF" transform="translate(273,230)"/>
<path d="M0 0 C2.02225194 3.0333779 2.99347524 5.61344489 4.125 9.0625 C4.47820312 10.12597656 4.83140625 11.18945312 5.1953125 12.28515625 C6 15 6 15 6 17 C5.01 16.67 4.02 16.34 3 16 C2.05078125 13.41796875 2.05078125 13.41796875 1.3125 10.1875 C1.06113281 9.12917969 0.80976563 8.07085937 0.55078125 6.98046875 C0 4 0 4 0 0 Z " fill="#7481DD" transform="translate(147,249)"/>
<path d="M0 0 C0.99 0.33 1.98 0.66 3 1 C4.48882438 5.07467725 5.26270217 8.66541415 5 13 C2.4345406 10.4345406 2.45953913 8.52313332 2 5 C1.34 5 0.68 5 0 5 C-0.33 5.99 -0.66 6.98 -1 8 C-0.67 5.36 -0.34 2.72 0 0 Z " fill="#7384DE" transform="translate(133,240)"/>
<path d="M0 0 C0.99 0.33 1.98 0.66 3 1 C3 2.98 3 4.96 3 7 C1.35 7 -0.3 7 -2 7 C-2.33 6.34 -2.66 5.68 -3 5 C-1.5625 2.375 -1.5625 2.375 0 0 Z " fill="#FD3131" transform="translate(408,266)"/>
<path d="M0 0 C4.875 1.75 4.875 1.75 6 4 C6.66 3.67 7.32 3.34 8 3 C7.67 4.65 7.34 6.3 7 8 C6.67 7.34 6.34 6.68 6 6 C2.97065509 5.34227572 2.97065509 5.34227572 0 5 C0 3.35 0 1.7 0 0 Z " fill="#273DD8" transform="translate(121,250)"/>
<path d="M0 0 C0.33 0.66 0.66 1.32 1 2 C0.34 2 -0.32 2 -1 2 C-0.01 4.31 0.98 6.62 2 9 C1.34 9 0.68 9 0 9 C0 8.34 0 7.68 0 7 C-0.99 7 -1.98 7 -3 7 C-3.33 7.99 -3.66 8.98 -4 10 C-4.625 7.1875 -4.625 7.1875 -5 4 C-3 1 -3 1 0 0 Z " fill="#5467E1" transform="translate(270,245)"/>
<path d="M0 0 C3.22269618 3.79817765 5.74520378 7.57391854 8 12 C7.67 12.66 7.34 13.32 7 14 C6.34 13.34 5.68 12.68 5 12 C5 11.01 5 10.02 5 9 C3.68 9 2.36 9 1 9 C0.29925156 5.846632 0 3.27275026 0 0 Z " fill="#EE6D69" transform="translate(289,230)"/>
<path d="M0 0 C1.98 0 3.96 0 6 0 C6.33 1.65 6.66 3.3 7 5 C7.99 5.33 8.98 5.66 10 6 C9.67 7.65 9.34 9.3 9 11 C7 8 7 8 5.625 5.4375 C3.91677479 2.87516219 2.8306439 2.07369252 0 1 C0 0.67 0 0.34 0 0 Z " fill="#EE6A6B" transform="translate(345,237)"/>
<path d="M0 0 C0.33 0 0.66 0 1 0 C1.99 5.61 2.98 11.22 4 17 C3.34 17.33 2.68 17.66 2 18 C-0.1583195 11.92972642 -0.20852314 6.40629424 0 0 Z " fill="#EB6A68" transform="translate(401,234)"/>
<path d="M0 0 C0.99 0 1.98 0 3 0 C3.75612577 5.23471686 4.2063366 9.77254141 3 15 C2.67 15 2.34 15 2 15 C1.34 10.05 0.68 5.1 0 0 Z " fill="#7381DA" transform="translate(183,258)"/>
<path d="M0 0 C0.33 1.32 0.66 2.64 1 4 C1.66 4 2.32 4 3 4 C6.125 10.625 6.125 10.625 5 14 C4.67 12.68 4.34 11.36 4 10 C3.34 10 2.68 10 2 10 C-1.07692308 4.58461538 -1.07692308 4.58461538 -0.6875 1.625 C-0.460625 1.08875 -0.23375 0.5525 0 0 Z " fill="#6371D7" transform="translate(216,248)"/>
<path d="M0 0 C5.57142857 5.14285714 5.57142857 5.14285714 6 9 C5.34 9 4.68 9 4 9 C4 8.34 4 7.68 4 7 C2.68 7 1.36 7 0 7 C0 4.69 0 2.38 0 0 Z " fill="#636ED8" transform="translate(272,254)"/>
<path d="M0 0 C2.70272533 2.87164566 3.94791837 4.30991841 4.25 8.3125 C4.1675 9.199375 4.085 10.08625 4 11 C2.68 10.34 1.36 9.68 0 9 C0 6.03 0 3.06 0 0 Z " fill="#F05152" transform="translate(298,246)"/>
<path d="M0 0 C2.475 0.495 2.475 0.495 5 1 C4.67 2.65 4.34 4.3 4 6 C3.34 6 2.68 6 2 6 C1.34 6.99 0.68 7.98 0 9 C0 6.03 0 3.06 0 0 Z " fill="#F16260" transform="translate(393,242)"/>
<path d="M0 0 C0 0.99 0 1.98 0 3 C-5.28 2.67 -10.56 2.34 -16 2 C-16 1.67 -16 1.34 -16 1 C-13.89594609 0.83191581 -11.79175242 0.66558052 -9.6875 0.5 C-8.51574219 0.4071875 -7.34398437 0.314375 -6.13671875 0.21875 C-4.094806 0.07635011 -2.0468721 0 0 0 Z " fill="#6979D7" transform="translate(185,248)"/>
<path d="M0 0 C0.66 0.33 1.32 0.66 2 1 C1.01 4.96 0.02 8.92 -1 13 C-1.33 13 -1.66 13 -2 13 C-2.05416188 11.39620659 -2.09286638 9.79188594 -2.125 8.1875 C-2.14820313 7.29417969 -2.17140625 6.40085938 -2.1953125 5.48046875 C-2 3 -2 3 0 0 Z " fill="#EE6D6C" transform="translate(419,242)"/>
<path d="M0 0 C0.66 0 1.32 0 2 0 C1.67 2.31 1.34 4.62 1 7 C-0.32 7.33 -1.64 7.66 -3 8 C-2.37240135 5.07120629 -1.41377341 2.63904371 0 0 Z " fill="#EC4E51" transform="translate(389,262)"/>
<path d="M0 0 C0.66 0.33 1.32 0.66 2 1 C2.40729228 3.32156597 2.74438677 5.6568787 3 8 C1.68 8.33 0.36 8.66 -1 9 C-0.67 6.03 -0.34 3.06 0 0 Z " fill="#273DD6" transform="translate(145,248)"/>
<path d="M0 0 C0 0.99 0 1.98 0 3 C-0.99 3.33 -1.98 3.66 -3 4 C-3 4.66 -3 5.32 -3 6 C-3.66 6 -4.32 6 -5 6 C-5.33 4.68 -5.66 3.36 -6 2 C-4.02 1.34 -2.04 0.68 0 0 Z " fill="#6E7CDF" transform="translate(276,239)"/>
<path d="M0 0 C1.32 0 2.64 0 4 0 C4 0.99 4 1.98 4 3 C4.99 3 5.98 3 7 3 C6.67 3.66 6.34 4.32 6 5 C4.35 5 2.7 5 1 5 C0.67 3.35 0.34 1.7 0 0 Z " fill="#FE3132" transform="translate(346,231)"/>
<path d="M0 0 C0 2.66666667 0 5.33333333 0 8 C-1.32 8 -2.64 8 -4 8 C-3.40072174 4.64404172 -2.15377564 2.62198774 0 0 Z " fill="#EE6367" transform="translate(326,234)"/>
<path d="M0 0 C1.32 0.33 2.64 0.66 4 1 C4 2.32 4 3.64 4 5 C2.68 5.33 1.36 5.66 0 6 C0 4.02 0 2.04 0 0 Z " fill="#FD2F2F" transform="translate(409,257)"/>
<path d="M0 0 C0.33 0.66 0.66 1.32 1 2 C1.66 2 2.32 2 3 2 C3 3.65 3 5.3 3 7 C3.66 7.33 4.32 7.66 5 8 C4.01 8 3.02 8 2 8 C0.25 5.6875 0.25 5.6875 -1 3 C-0.67 2.01 -0.34 1.02 0 0 Z " fill="#EF7674" transform="translate(294,253)"/>
<path d="M0 0 C2.475 0.495 2.475 0.495 5 1 C5.33 2.32 5.66 3.64 6 5 C4.35 5.33 2.7 5.66 1 6 C1 5.01 1 4.02 1 3 C0.67 2.01 0.34 1.02 0 0 Z " fill="#4E5FDC" transform="translate(187,230)"/>
<path d="M0 0 C2.97 0.99 5.94 1.98 9 3 C5.16380575 3.95904856 3.67568464 3.91892116 0 3 C0 2.01 0 1.02 0 0 Z " fill="#F24A4B" transform="translate(350,231)"/>
<path d="M0 0 C0.99 0.33 1.98 0.66 3 1 C1.515 4.465 1.515 4.465 0 8 C-2 5 -2 5 -2 1 C-1.34 0.67 -0.68 0.34 0 0 Z " fill="#6576DF" transform="translate(125,265)"/>
<path d="M0 0 C0.66 0 1.32 0 2 0 C2 0.66 2 1.32 2 2 C2.66 2 3.32 2 4 2 C6.125 6.625 6.125 6.625 5 10 C3.35 6.7 1.7 3.4 0 0 Z " fill="#6B77D9" transform="translate(222,263)"/>
<path d="M0 0 C2 1 2 1 4 3 C4.125 6.125 4.125 6.125 4 9 C0 4.5 0 4.5 0 0 Z " fill="#EE7977" transform="translate(289,245)"/>
<path d="M0 0 C2.97 0 5.94 0 9 0 C9.33 1.32 9.66 2.64 10 4 C9.01 4 8.02 4 7 4 C7 3.34 7 2.68 7 2 C4.69 1.67 2.38 1.34 0 1 C0 0.67 0 0.34 0 0 Z " fill="#4B5BD9" transform="translate(206,231)"/>
<path d="M0 0 C1.32 0.33 2.64 0.66 4 1 C4 1.99 4 2.98 4 4 C4.99 4.33 5.98 4.66 7 5 C6.01 6.485 6.01 6.485 5 8 C2.525 4.04 2.525 4.04 0 0 Z " fill="#717DDD" transform="translate(263,260)"/>
<path d="M0 0 C4.42857143 5.14285714 4.42857143 5.14285714 5 9 C4.34 9 3.68 9 3 9 C0.56839395 5.63316085 0 4.26649636 0 0 Z " fill="#697FD9" transform="translate(218,239)"/>
<path d="M0 0 C1.65 0.33 3.3 0.66 5 1 C2.08235 2.9451 0.37462715 3.45276317 -3 4 C-2.01 2.68 -1.02 1.36 0 0 Z " fill="#F05F5B" transform="translate(339,235)"/>
</svg>
